<svg width="32" height="32" viewBox="0 0 32 32" fill="none" xmlns="http://www.w3.org/2000/svg">
<g clip-path="url(#clip0_23_803)">
<path d="M23.36 20.9184C22.4 22.1376 21.3696 23.2896 20.0352 24.1184C19.6448 24.3584 19.2352 24.832 18.7552 24.5568C18.3456 24.32 18.56 23.7792 18.56 23.3792C18.5408 21.3536 18.56 19.3248 18.56 17.2992C18.56 14.8 18.56 14.7392 20.9952 14.7392C22.1696 14.7392 22.4448 14.2592 22.4224 13.2032C22.4 12.1472 22.384 11.456 21.0144 11.4912C17.8144 11.5648 14.6144 11.5424 11.4144 11.4912C10.256 11.4752 9.52639 11.5648 9.54559 13.0912C9.54559 14.5248 10.1376 14.8608 11.3664 14.7232C11.6864 14.6848 12.0064 14.7456 12.3264 14.7232C13.1072 14.64 13.472 14.8576 13.456 15.7536C13.4016 18.4192 13.4112 21.0848 13.456 23.7536C13.456 24.8096 13.0752 24.8 12.3296 24.3584C11.168 23.6736 10.0192 22.88 9.35679 21.7408C8.39679 20.0864 6.96959 19.904 5.32159 19.8656C4.11839 19.8368 3.46879 20.6912 2.85759 21.392C2.42879 21.8816 3.20959 22.5152 3.55199 22.992C5.54239 25.8272 8.14719 27.9104 11.4976 28.8512C13.36 29.376 14.7744 30.2976 15.68 32H16.32C17.2224 30.2944 18.6368 29.36 20.5024 28.8416C24.096 27.84 26.7936 25.568 28.8 22.4672C29.0016 22.1472 29.44 21.872 29.152 21.3536C28.2336 19.648 24.6016 19.36 23.36 20.9184Z" fill="#72A5D3"/>
<path d="M16 10.24C17.1544 10.2291 18.2722 9.83271 19.1755 9.11376C20.0788 8.39481 20.7159 7.39457 20.9856 6.272C21.2372 5.17072 21.1176 4.01713 20.6453 2.99094C20.173 1.96474 19.3746 1.12355 18.3744 0.5984L17.28 0H14.72L13.6288 0.6112C11.52 1.7728 10.4704 4.0672 11.0112 6.2688C11.2824 7.39142 11.9203 8.39152 12.8239 9.11079C13.7275 9.83007 14.8451 10.2274 16 10.24ZM15.8464 3.2C17.1072 3.3312 17.8784 3.9232 17.8816 5.12C17.8848 6.3168 17.1616 7.0208 15.9616 7.0176C14.8544 7.0176 14.16 6.3328 14.1024 5.2288C14.048 3.9968 14.8256 3.4176 15.8464 3.2Z" fill="#02367B"/>
<path d="M31.1904 15.8496C29.9552 12.704 29.0624 12.4256 26.3296 14.3552C25.6723 14.8102 25.0662 15.3348 24.5216 15.92C23.904 16.5984 22.6784 17.232 23.1232 18.2048C23.568 19.1776 24.8576 18.7328 25.7504 18.624C27.1008 18.4608 28.176 18.624 29.1744 19.6928C29.872 20.4352 30.7744 21.1392 32 20.8V18.24C31.7312 17.4432 31.5008 16.64 31.1904 15.8496Z" fill="#02367B"/>
<path d="M7.1744 18.6912C7.38722 18.7223 7.60383 18.7158 7.8144 18.672C8.2144 18.6112 8.7168 18.7552 8.9376 18.272C9.1584 17.7888 8.8064 17.3632 8.5088 16.992C7.37576 15.5862 5.98165 14.4127 4.4032 13.536C3.072 12.8 2.2592 13.1904 1.5552 14.4224C0.752 15.8208 0.5888 17.4208 0 18.88V20.8C0.358555 20.91 0.741456 20.9125 1.10143 20.8073C1.4614 20.7021 1.78268 20.4937 2.0256 20.208C3.472 18.7104 5.184 18.2752 7.1744 18.6912Z" fill="#02367B"/>
</g>
<defs>
<clipPath id="clip0_23_803">
<rect width="32" height="32" fill="white"/>
</clipPath>
</defs>
</svg>
