<svg width="32" height="32" viewBox="0 0 32 32" fill="none" xmlns="http://www.w3.org/2000/svg">
<g clip-path="url(#clip0_23_788)">
<path d="M7.7568 0H1.8432C0.825229 0 0 0.825229 0 1.8432V7.7568C0 8.77477 0.825229 9.6 1.8432 9.6H7.7568C8.77477 9.6 9.6 8.77477 9.6 7.7568V1.8432C9.6 0.825229 8.77477 0 7.7568 0Z" fill="#72A5D3"/>
<path d="M18.9568 0H13.0432C12.0252 0 11.2 0.825229 11.2 1.8432V7.7568C11.2 8.77477 12.0252 9.6 13.0432 9.6H18.9568C19.9748 9.6 20.8 8.77477 20.8 7.7568V1.8432C20.8 0.825229 19.9748 0 18.9568 0Z" fill="#72A5D3"/>
<path d="M30.1568 0H24.2432C23.2252 0 22.4 0.825229 22.4 1.8432V7.7568C22.4 8.77477 23.2252 9.6 24.2432 9.6H30.1568C31.1748 9.6 32 8.77477 32 7.7568V1.8432C32 0.825229 31.1748 0 30.1568 0Z" fill="#72A5D3"/>
<path d="M7.7568 11.2H1.8432C0.825229 11.2 0 12.0252 0 13.0432V18.9568C0 19.9748 0.825229 20.8 1.8432 20.8H7.7568C8.77477 20.8 9.6 19.9748 9.6 18.9568V13.0432C9.6 12.0252 8.77477 11.2 7.7568 11.2Z" fill="#72A5D3"/>
<path d="M18.9568 11.2H13.0432C12.0252 11.2 11.2 12.0252 11.2 13.0432V18.9568C11.2 19.9748 12.0252 20.8 13.0432 20.8H18.9568C19.9748 20.8 20.8 19.9748 20.8 18.9568V13.0432C20.8 12.0252 19.9748 11.2 18.9568 11.2Z" fill="#02367B"/>
<path d="M30.1568 11.2H24.2432C23.2252 11.2 22.4 12.0252 22.4 13.0432V18.9568C22.4 19.9748 23.2252 20.8 24.2432 20.8H30.1568C31.1748 20.8 32 19.9748 32 18.9568V13.0432C32 12.0252 31.1748 11.2 30.1568 11.2Z" fill="#72A5D3"/>
<path d="M7.7568 22.4H1.8432C0.825229 22.4 0 23.2253 0 24.2432V30.1568C0 31.1748 0.825229 32 1.8432 32H7.7568C8.77477 32 9.6 31.1748 9.6 30.1568V24.2432C9.6 23.2253 8.77477 22.4 7.7568 22.4Z" fill="#72A5D3"/>
<path d="M18.9568 22.4H13.0432C12.0252 22.4 11.2 23.2253 11.2 24.2432V30.1568C11.2 31.1748 12.0252 32 13.0432 32H18.9568C19.9748 32 20.8 31.1748 20.8 30.1568V24.2432C20.8 23.2253 19.9748 22.4 18.9568 22.4Z" fill="#72A5D3"/>
<path d="M30.1568 22.4H24.2432C23.2252 22.4 22.4 23.2253 22.4 24.2432V30.1568C22.4 31.1748 23.2252 32 24.2432 32H30.1568C31.1748 32 32 31.1748 32 30.1568V24.2432C32 23.2253 31.1748 22.4 30.1568 22.4Z" fill="#72A5D3"/>
</g>
<defs>
<clipPath id="clip0_23_788">
<rect width="32" height="32" fill="white"/>
</clipPath>
</defs>
</svg>
