<svg width="32" height="32" viewBox="0 0 32 32" fill="none" xmlns="http://www.w3.org/2000/svg">
<path d="M24.724 23.2512L26.964 19.9674C27.5567 21.193 28.1032 22.3232 28.6453 23.4426C28.5813 23.5021 28.5525 23.5501 28.525 23.5494C27.4799 23.5296 27.4901 23.5309 27.2994 24.569C27.0588 25.8758 26.2984 26.8486 25.2514 27.6083C24.4834 28.1638 23.636 28.5901 22.7144 28.8064C20.3919 29.351 18.3528 30.4704 16.4328 31.8336C16.1212 32.055 15.9381 32.055 15.6271 31.8336C13.7071 30.4691 11.6642 29.3632 9.34612 28.8006C8.13897 28.5118 7.03089 27.9058 6.13652 27.0451C5.30452 26.2496 4.77204 25.2902 4.71636 24.1325C4.68948 23.5738 4.50196 23.3882 3.9682 23.5181C3.81076 23.5565 3.64116 23.5475 3.36084 23.5699C3.94132 22.3539 4.48532 21.2211 5.08884 19.9648L7.25908 23.1354C7.165 23.3274 7.02356 23.2858 6.90772 23.3133C6.67028 23.369 6.3138 23.2198 6.21204 23.4413C6.09684 23.6902 6.38612 23.927 6.54676 24.1306C7.80884 25.7254 9.52404 26.3309 11.4812 26.1882C13.1093 26.0698 14.3996 24.6035 14.4437 23.0131C14.5717 18.5024 14.8245 13.9949 15.0556 9.48736C15.0837 8.93503 14.9544 8.76159 14.388 8.78848C13.3871 8.83583 12.3823 8.80383 11.38 8.80063C10.582 8.79743 10.4495 8.66623 10.4533 7.90463C10.4565 7.23647 10.621 7.09055 11.4063 7.08799C12.4943 7.08415 13.5823 7.07583 14.6658 7.09759C15.0402 7.10527 15.1976 6.99519 15.1842 6.60735C15.1774 6.25107 15.1934 5.89471 15.2322 5.54047C15.27 5.13471 15.238 4.81024 14.8815 4.48959C14.3656 4.02431 14.3772 1.07008 14.8232 0.517755C15.1964 0.0556752 15.9548 -0.132485 16.6152 0.0991952C17.213 0.310395 17.5183 0.746875 17.5202 1.38624C17.5202 2.01279 17.5036 2.64064 17.5272 3.26655C17.5484 3.84255 17.4588 4.35456 16.9647 4.71359C16.7042 4.90559 16.8015 5.17823 16.8277 5.40799C16.8872 5.94303 16.6549 6.63487 17.012 6.97407C17.3692 7.31327 18.0488 7.06047 18.5858 7.07711C19.2744 7.09887 19.965 7.07711 20.6543 7.08543C21.4607 7.09119 21.6143 7.23711 21.6104 7.96159C21.6066 8.68607 21.4741 8.79807 20.6242 8.79999C19.6002 8.79999 18.5762 8.81983 17.5522 8.78975C17.1074 8.77695 16.9845 8.92159 17.0063 9.35871C17.2136 13.5533 17.4031 17.7491 17.5976 21.9443C17.6143 22.2989 17.668 22.6566 17.6431 23.008C17.5221 24.64 18.9634 26.048 20.5148 26.176C22.5461 26.3443 24.3093 25.719 25.5823 24.0275C25.7103 23.8528 25.9599 23.6627 25.8549 23.4387C25.7621 23.241 25.476 23.3651 25.2789 23.328C25.1388 23.3018 24.996 23.2883 24.724 23.2512ZM15.3935 2.4512C15.4492 2.89919 15.478 3.45343 16.0111 3.46879C16.5551 3.48415 16.6428 2.93311 16.6364 2.49215C16.63 2.06143 16.5896 1.51552 16.0124 1.51936C15.4792 1.5232 15.4748 2.05439 15.3935 2.45183V2.4512Z" fill="white"/>
</svg>
